<?xml version="1.0" standalone="no"?>
<!DOCTYPE svg PUBLIC "-//W3C//DTD SVG 1.1//EN" "http://www.w3.org/Graphics/SVG/1.1/DTD/svg11.dtd" >
<svg xmlns="http://www.w3.org/2000/svg" xmlns:xlink="http://www.w3.org/1999/xlink" version="1.1" viewBox="-10 0 1475 2048">
  <g transform="matrix(1 0 0 -1 0 1638)">
   <path fill="currentColor"
d="M456 -316q17 45 35 86t34.5 80t30.5 76.5t24 75.5v2l-1 2l11 45q1 2 7.5 6t6.5 7q0 2 2.5 8.5l5 13l5 13t3.5 8.5q3 12 5.5 22.5t0.5 21.5l-20 46q-6 34 -24 66t-35 62l-23 33q-2 2 -2 5v3q-17 24 -30 49.5t-25 51t-24.5 51t-27.5 50.5q-5 6 -17 25.5t-26.5 42
t-27.5 43.5t-19 31q-35 54 -67.5 109t-64.5 110.5t-65.5 110t-69.5 107.5q-1 1 -1 2v4q-3 13 13 24q2 0 6 1t6 2q2 0 6.5 6.5t6.5 9.5q2 0 10 1t16.5 2.5t16.5 3t10 2.5q5 1 27 7t47.5 13.5t47.5 14t28 8.5q2 0 4 1q2 0 3.5 0.5t2.5 0.5q4 0 7 1q3 0 5 1q5 1 15 2t19.5 2
t18 1h10.5q3 1 8.5 -1.5t10.5 -5.5q3 -5 10 -17t14.5 -25.5t15 -25.5t10.5 -17q32 -57 69 -109.5t71 -109.5q1 -2 4.5 -9.5t8 -15.5t8 -15t4.5 -8t3.5 -5t5 -8.5l5 -9t3.5 -6.5q2 -3 12.5 -18t22.5 -32.5t23 -33t14 -19.5q2 -4 11 -21t19.5 -36.5t19.5 -37t12 -21.5
q0 -2 3.5 -5.5l5.5 -5.5q2 10 3.5 24.5t3.5 22.5q8 47 18.5 91t26.5 89q8 28 21 55.5t21 55.5q14 42 31 91t32 89q1 3 5 13t9 22t9 22t5 13q4 12 6.5 21t5.5 17t8 15.5t13 16.5q1 0 6.5 1t11.5 2.5t11.5 3t7.5 2.5q26 4 50.5 4.5t50.5 0.5q5 0 21 1t35 1.5t35 0.5h21
q8 1 28 1.5t42 0.5h41.5t27.5 -1q5 -2 15 -7.5t12 -11.5q1 -9 0 -20.5t-4 -23t-6 -22l-5 -17.5q-13 -49 -26.5 -94.5t-28.5 -89.5t-32 -88t-37 -89q-34 -76 -63.5 -162.5t-56.5 -163.5q-11 -33 -28 -71t-34 -69q-11 -20 -19.5 -40.5t-13.5 -40.5q-4 -18 -7 -31t-7 -25
t-9.5 -25t-12.5 -31q-3 -6 -4 -22t0 -24q0 -2 -4.5 -12t-6.5 -12q0 -1 -3 -4.5t-7.5 -8l-8 -8l-4.5 -4.5q0 -2 -2 -9.5t-4.5 -16t-4 -16t-1.5 -9.5q-3 -5 -8.5 -18.5t-11.5 -28.5t-11 -28.5t-8 -18.5q2 -23 0.5 -36t-16.5 -32l-91 -273q-1 -3 -4.5 -9.5t-8.5 -13t-10 -11.5
t-9 -6q-9 -2 -22.5 -3t-21.5 1q-2 1 -8.5 0t-15 -2.5t-16.5 -2.5t-14 1q-4 1 -10 2t-9 0q-5 1 -20 3.5t-32.5 5.5t-33.5 5.5t-21 2.5q-5 -1 -16.5 -1h-13.5t-11 1.5t-20 2.5t-20.5 2t-10.5 1q-6 0 -15 3t-14.5 13t-5 28t13.5 49zM818 663q-2 -2 -2.5 -5.5t-1.5 -5.5
q-3 -13 -5.5 -25t-8 -21.5t-16 -16t-29.5 -8.5l-16 -17q-8 -15 -16 -28q-7 -11 -15 -22.5t-13 -17.5q-1 -2 -2 -3l-2 -4q-2 -2 -9 -10t-15 -17.5t-15.5 -17.5t-9.5 -10q-4 -5 -12.5 -17.5t-18 -26.5t-17.5 -26t-11 -17v-2q0 -1 0.5 -2t0.5 -2q1 -3 3 -10t5 -14.5t7 -13
t9 -4.5q8 2 15 7t12 10q4 7 17.5 25t28.5 38.5t28.5 38.5t18.5 25q1 2 7 9.5t12.5 15.5t12.5 15t8 9t7.5 9.5t4.5 9.5l15 21l24 28q4 3 13.5 11.5t20 17.5t19.5 17t12 11q1 1 6 4.5t10 7.5t9.5 7t5.5 4q3 3 15.5 15t27 25.5t27 25.5t15.5 15q1 1 7.5 5.5t13 9.5t12.5 9t8 5
q2 2 9 8.5t14.5 13.5t13.5 13.5t7 8.5q6 4 21 15t31.5 23.5t31 23.5t20.5 16q23 27 33.5 56.5t21.5 62.5q2 7 4.5 17t5.5 21q4 11 8 25l-2 6q-49 -32 -91 -76t-84 -85q-24 -22 -56 -46t-56 -50q-3 -4 -19 -21.5t-34 -37.5t-34 -37.5t-20 -21.5q-12 -14 -15.5 -15.5t-6 0
t-7.5 2t-19 -8.5zM665 180q2 -3 3.5 -9t4 -11t5 -9t6.5 -3q2 0 3.5 1t3.5 2q12 6 26 18t27.5 25.5t25.5 27t22 23.5q15 13 32 29.5t36 27.5q8 9 30.5 30.5t48 45.5t48.5 45.5t32 30.5q13 12 29 26t26 26q13 17 19 27t11 30q5 18 16 42.5t22 47.5q12 26 27 54l-1 8
q-5 0 -15.5 -8.5t-22.5 -19t-22.5 -21l-14.5 -14.5q-14 -16 -36.5 -38.5t-45 -43.5t-40 -37.5t-20.5 -20.5q-2 -1 -5.5 -5.5t-7.5 -10.5l-7 -10.5t-4 -5.5q-2 -3 -9.5 -11.5t-16 -18.5t-16.5 -19.5t-11 -13.5q-51 -57 -102.5 -112t-103.5 -112q-3 -1 -4 -5.5t1 -7.5z
M486 -365q0 -2 1 -3q0 -1 1 -1q2 -2 6.5 -3t6.5 -1q4 1 13 2t19 3t18.5 4.5t11.5 5.5q6 5 21.5 19t33 30.5t33 31.5t22.5 22q2 0 10 8.5t10 10.5q29 28 61 52t61 52l4.5 4.5t8 7.5t8 7t4.5 4q8 7 21.5 15t17.5 21l57 144l-1 6q-17 -7 -33 -19t-31.5 -26t-30.5 -28t-28 -24
q-4 -3 -17.5 -13.5t-29.5 -22.5t-29 -22.5t-16 -13.5q-3 -2 -12.5 -10t-20.5 -18t-20.5 -18.5t-12.5 -10.5q-2 -1 -8.5 -6.5t-14.5 -11.5t-15 -11.5t-8 -7.5q-3 -3 -11.5 -11t-18 -17.5t-17.5 -18t-11 -11.5q-1 -1 -4 -3t-7 -4l-10 -6q-4 -7 -11.5 -24.5t-15 -36t-13 -33
t-3.5 -14.5zM633 261q1 -3 2 -10t3 -14.5t4.5 -13t5.5 -5.5q2 2 3 2h1q2 0 5.5 2.5t5.5 4.5l244 265q17 29 37.5 51.5t42 43t44.5 41.5t44 47q3 2 10.5 10t8.5 10q3 2 15.5 11t26.5 19.5l26 19.5t14 12t7.5 15.5t11 26t9.5 24t4 11.5l-1 8q-1 -1 -2 -1q-1 -1 -4 -1
q-1 -1 -5.5 -4.5t-10 -7.5t-10.5 -7.5t-6 -4.5q-9 -7 -21 -17t-29.5 -24.5t-41 -33t-56.5 -42.5q-16 -14 -42 -36.5t-52 -44.5t-46 -38.5t-23 -18.5q-33 -31 -59.5 -66.5t-51 -73l-49 -75t-53.5 -70.5q-3 -2 -6 -3q-5 -3 -5 -4q-1 -2 -1 -3q0 -2 -0.5 -2.5t0.5 -2.5z
M876 835q-10 -21 -16 -34t-10.5 -23t-8 -19t-8.5 -22q-3 -11 -5.5 -18.5t-0.5 -18.5l6 2q5 2 12.5 8t10.5 8q4 5 22.5 24t40.5 40.5t41 40t24 22.5q3 3 15.5 14t27 23.5t27.5 23t16 13.5t13 13.5t21.5 22.5t21.5 23t13 14q8 7 28.5 26.5t43.5 41.5t43 41t28 27q2 0 4.5 2
t2.5 4q1 4 3.5 13t5 19t5 18.5t3.5 12.5q-29 -20 -53 -40t-48 -44q-2 -2 -7.5 -6t-11 -8.5t-11 -8.5t-7.5 -5q-2 -2 -13 -9t-13 -10q-26 -18 -50.5 -44.5t-49.5 -46.5q-2 -2 -5 -5.5t-5 -4.5q-9 -8 -31.5 -26t-47.5 -38.5t-47 -39t-30 -26.5zM676 96q-4 -12 -12 -27.5
t-16 -32t-14.5 -33t-7.5 -29.5l6 1q5 4 17.5 14.5t26 22.5t26 22.5t17.5 14.5q2 1 4 3q5 2 5 4l4 4l6.5 6.5l6.5 6.5t3 4q6 6 16.5 16t22 20t20.5 18t11 10t9.5 8t16 12.5t16 12t10.5 7.5q10 8 27 22t36 28.5t36 28.5t26 22q1 2 6.5 14.5t13 30.5t16 38.5t16 38.5t12.5 30.5
t6 15.5h-3q-1 0 -1.5 -0.5t-1.5 -0.5h-1q-2 -1 -12.5 -10.5t-23 -21t-23.5 -21.5t-12 -11q-4 -2 -18.5 -17t-31 -32.5t-31.5 -32.5t-20 -18q-2 -2 -12 -11.5t-23 -22t-26 -24.5t-21 -18q-1 -1 -8.5 -8t-17 -15.5t-18.5 -16t-12 -9.5q-13 -10 -21.5 -17t-16 -13.5
t-15.5 -14.5zM911 951q-13 -14 -18 -34.5t-9 -35.5q-1 -1 -1 -4v-2h6q1 1 7.5 5.5t14.5 10.5t16.5 12.5t13.5 11.5l9.5 9.5t16 15.5t16 15.5l9.5 9.5q1 1 6.5 6t11.5 11t12 11t9 8q2 0 6 3t6 3q3 3 13.5 14t23 23.5t23.5 22.5t13 12q1 2 9 8t17 12.5t17 12.5t10 8
q26 20 50 43.5t50 43.5q4 3 12.5 9.5t17.5 14t16.5 13.5t10.5 8q0 1 3 3.5t6.5 6t6 7.5t1.5 7v2q-13 3 -21 2t-21 -3q-12 -2 -23.5 -9.5t-22 -18t-20.5 -21.5t-19 -19q-80 -64 -155.5 -126.5t-149.5 -131.5zM269 909q2 -2 7.5 -10t11 -17.5t10.5 -18t7 -11.5q0 -2 3 -5.5
t5 -3.5q24 20 41 46.5t32 54.5q3 3 10.5 14t15.5 24.5t15 24.5t9 14q5 7 11.5 19.5t8.5 13.5q0 2 -0.5 4.5t-2.5 4.5q-2 9 -5.5 16t-7.5 13.5t-6.5 13t-1.5 14.5q-10 -4 -20 -15t-19.5 -24.5t-18 -26.5t-14.5 -21q-1 -2 -5 -6.5l-8 -9t-7.5 -9t-3.5 -5.5q-2 -2 -9.5 -11.5
t-16.5 -21t-17.5 -23t-13.5 -18.5q-2 -2 -5.5 -8t-5.5 -6v-1q0 -2 1 -3v-2zM986 237q-2 0 -7 -4.5t-11 -10t-11.5 -10.5t-7.5 -7q-3 -2 -10 -7l-14 -10t-13 -9.5t-7 -5.5l-8.5 -8.5l-13.5 -13.5t-13 -13.5t-7 -7.5q-3 -2 -13 -10.5t-22 -18.5t-22 -18.5t-13 -10.5l-22 -16.5
t-19 -15t-18.5 -16.5t-20.5 -20l-107 -77q-3 -3 -13.5 -22.5t-22 -43t-20.5 -44t-8 -24.5v-4q59 60 125 109t130 102q3 2 14.5 11.5t24 21t24 21t14.5 12.5q2 2 12.5 10t22.5 17t22 17t13 10q6 4 12.5 19t13 33t12 36.5t10.5 30.5l-4 -1zM1161 1265q-2 -1 -5 -1.5t-6 -1.5
q-4 -1 -7 -1q-2 -1 -9 -6t-15 -11t-16 -12.5t-12 -9.5l-13.5 -13.5t-23 -22.5t-24 -22.5t-14.5 -12.5q-2 -2 -8 -7t-13 -10t-13.5 -9.5t-7.5 -6.5q-21 -21 -34.5 -53.5t-19.5 -60.5q18 13 36 29t35 30q49 42 99 81t102 78q4 4 10 9t13 10.5t12.5 11.5t8.5 12q-3 5 -13 6
t-22 -0.5t-23.5 -3.5t-16.5 -2zM224 995q2 -11 10.5 -24t18.5 -23q20 22 37 46.5t40 42.5l78 114q-3 8 -7 15q-3 6 -6.5 12.5t-5.5 10.5q-2 3 -6 9.5t-10 5.5l-4 -2q-4 -2 -11.5 -8t-8.5 -8q-2 -1 -6 -5.5t-8.5 -10t-9 -10.5t-6.5 -8q-1 -1 -4 -5.5t-6.5 -9.5t-7 -10.5
t-4.5 -7.5q-4 -5 -11 -16.5t-15 -24t-15.5 -23.5t-10.5 -15q-1 -3 -3.5 -8.5t-6 -11.5t-7 -11.5t-5.5 -7.5v-2q0 -1 0.5 -2t0.5 -2zM401 675q1 -3 3.5 -8.5t5.5 -11.5t5 -11t2 -6q2 -5 9 -5q12 8 23.5 20t21.5 24.5t19 25.5t18 23q2 2 12 10.5t14 11.5q2 2 9 9.5t16 16.5
l17 17l12 12q0 5 5 8q-1 0 -1 1v2q0 4 -5 15t-12 22t-14.5 19.5t-13.5 7.5h-2q-5 -7 -16.5 -24t-25 -36.5t-25 -37t-16.5 -23.5q-2 -3 -10 -12t-17 -19.5t-17 -19t-10 -10.5t-5.5 -7t-2.5 -7zM488 504q3 -17 13 -32.5t22 -23.5q5 8 19 28t29.5 42.5t29.5 42t20 27.5
q2 2 9.5 12t16.5 21.5t16.5 21.5t9.5 13q2 2 3 4q1 1 1 3v2q-2 9 -11.5 24.5t-14.5 20.5q-2 0 -6 -2.5t-3 -4.5q-3 -3 -8.5 -9t-11 -11.5l-10 -10l-5.5 -5.5q-2 -3 -8.5 -11.5t-14 -18t-14.5 -18.5t-10 -12q-2 -3 -10 -14t-16.5 -23.5t-16 -23.5t-9.5 -13t-10 -11t-10 -12
v-6zM440 591q0 -3 3.5 -11.5t8 -17t9 -15t8.5 -5.5h2q43 45 77 95.5t76 97.5q10 -2 17 -9q0 3 1 4q0 1 1 2q0 3 -3.5 11t-8.5 16t-10.5 13.5t-11.5 4.5q-2 0 -6.5 -5.5t-6.5 -6.5t-6.5 -4.5t-9.5 -8t-10 -8t-6 -4.5q-6 -5 -26.5 -27t-42.5 -47.5t-39 -47.5t-16 -27zM547 405
q2 -2 6 -10.5t5 -11.5q1 0 2 1q1 0 2 0.5t2 0.5q6 1 14.5 9t17 18t16 20t11.5 14q0 1 3.5 5.5t7.5 9.5t8 9l5 5q3 3 9 12.5t13.5 20.5t14 20.5t9.5 14.5q2 3 6.5 10t9.5 15.5t9.5 15.5t5.5 10v2l-2 4q-1 7 -8.5 19.5t-14.5 11.5q-2 0 -4 -1q-38 -42 -71 -86.5t-60 -94.5
q-4 -8 -10.5 -19t-8.5 -13v-2q0 -1 0.5 -2t0.5 -2zM604 -384q6 -1 19.5 -1t16.5 1q1 0 2 1q1 0 2 0.5t2 0.5h4q1 0 2 1q5 2 17.5 8.5t15.5 8.5q26 21 50 44t50 46q1 0 5 3t8.5 6.5t8 7t3.5 5.5q1 2 4 10t6 17.5t5.5 17t3.5 9.5q2 6 8 20.5t9 18.5h-2q-9 -2 -16 -7.5
t-13.5 -12t-13 -14t-12.5 -11.5q-2 -2 -11 -8.5t-19.5 -14.5t-19.5 -15t-12 -9q-7 -6 -23.5 -22.5t-35.5 -36t-35.5 -36.5t-22.5 -24q-2 -1 -4 -5q-1 -2 -2 -3v-6zM365 740q2 -3 5.5 -10.5t3.5 -10.5h2q1 0 2 0.5t2 0.5t2 0.5t2 0.5t2 1q3 1 8 4t10 6.5t9 6.5t5 4l116 169
l-2 4q-1 5 -3.5 12.5t-6.5 14.5t-9.5 11t-12.5 3l-3 -1l-6 -8q-2 -3 -5 -6.5t-5 -6.5q-1 -2 -7.5 -12.5t-14.5 -22.5t-15 -22t-8 -13q-1 -2 -5.5 -8.5t-10 -14.5t-10 -15t-5.5 -9q-3 -4 -9 -13.5t-12.5 -20t-12.5 -19.5t-8 -13v-2q0 -3 1 -4zM173 1088q0 -4 3.5 -12.5t8 -17
t10.5 -14.5t11 -5q4 0 6 1l121 175l-1 6q-4 -1 -12 -2.5t-17 -3.5t-17 -4t-11 -3q-18 -4 -30.5 -11t-21.5 -16.5t-16.5 -22.5t-16.5 -29q-5 -9 -12 -18t-5 -23zM329 804q2 -6 6 -12t10 -8q20 20 36.5 42.5t31.5 46.5t29 48.5t29 47.5q1 1 3.5 5t5.5 8.5t6 8.5t4 6l-2 3
q-1 6 -5 12.5t-12 10.5q-36 -53 -69.5 -106.5t-72.5 -106.5v-6zM1028 1250q-2 0 -6.5 -8.5t-9.5 -19t-9 -21t-6 -14.5q-1 -2 -3.5 -11.5t-3.5 -13.5q2 1 5.5 3.5t5.5 4.5q10 10 25.5 24.5t29.5 28t24.5 23.5t10.5 11l-1 4zM1335 1131q-11 -7 -15.5 -16.5t-7.5 -22.5
t-6.5 -28.5t-13.5 -34.5q0 -5 -6 -17t-13.5 -30.5t-16 -42t-14.5 -49.5q0 -1 1 -2t2 -3t2 -3q1 3 4.5 11t7.5 17t7 17t5 11q3 7 10.5 28t16 45t16 46t11.5 31q1 5 5.5 19.5t4.5 18.5v5zM635 798q1 -7 10.5 -25t20.5 -37t20.5 -33t11.5 -14q9 2 8.5 9.5t-2.5 13.5
q-5 27 -23.5 52t-34.5 45q-1 1 -3 2q-4 2 -5 2q-5 -2 -4.5 -7t1.5 -8zM722 -384q11 -1 19.5 -2t17.5 1q7 1 14 11.5t12.5 23.5t9.5 25l6 18q-2 -1 -6 -3.5t-6 -3.5q-4 -5 -14 -13.5t-20.5 -18t-19.5 -17.5t-12 -11l-2 -2q-1 -1 -1 -4l-2 -2zM192 985q0 -2 1.5 -4t1.5 -4
t3.5 -8t7.5 -12.5l8 -13t5 -7.5q16 -27 27.5 -49.5t31.5 -45.5l-3 18q-9 16 -17 31q-7 13 -14.5 26.5t-12.5 21.5q-2 2 -8.5 13.5t-8.5 13.5q-5 7 -8 14.5t-14 5.5zM97 1150q6 -34 30 -56h2q1 0 1.5 0.5t1.5 0.5h1q0 1 1 2t3 5q-3 7 -6 16.5t-7 17t-10.5 12t-16.5 2.5z
M574 905q1 -5 5 -16t10 -22.5t13 -20t15 -7.5l-4 22l-38 52q0 -1 -0.5 -2t-0.5 -3v-3zM145 1069q1 -2 3 -8t4 -8q1 -4 6 -13t10.5 -19.5t10.5 -19.5t8 -12q0 2 -1.5 8t-1.5 8q0 3 -1.5 9t-1.5 8q-3 5 -7.5 13.5t-9 16t-7.5 13t-4 5.5zM145 1147q1 -3 2 -10.5t8 -8.5l24 34
l-2 6l-33 -12v-4q0 -2 0.5 -3t0.5 -2zM1371 1271q-2 -3 -6.5 -14.5t-9.5 -24.5t-8.5 -25t-4.5 -17l2 1q4 1 9.5 11.5t9.5 23t6.5 24.5t2.5 15q0 1 -0.5 2t-0.5 2v2zM720 645q1 -2 4.5 -6t7.5 -8.5t7.5 -9t5.5 -6.5q0 3 -1 7.5t-2 6.5q-2 20 -17 30q-1 -2 -2 -3
q-1 -2 -2 -2.5t-2 -1.5l1 -3v-4zM303 794q0 -3 2 -8.5t5 -11t6.5 -9.5t6.5 -3h4q-2 5 -9 17t-9 16q0 2 -2.5 3.5t-4.5 1.5v-2q0 -3 1 -4zM541 958q2 -6 6 -11.5t10 -7.5v2q0 1 -0.5 1.5t-0.5 1.5v1q-1 1 -5 7.5t-8.5 14t-8.5 14.5t-5 8q3 -9 6 -15q2 -6 4 -10.5t2 -5.5z
M282 838q-2 -1 -0.5 -8t2.5 -5q3 2 2.5 6.5t-4.5 6.5z" />
  </g>

</svg>
